<svg width="20.000015" height="20.000000" viewBox="0 0 20 20" fill="none" xmlns="http://www.w3.org/2000/svg" xmlns:xlink="http://www.w3.org/1999/xlink">
	<desc>
			Created with Pixso.
	</desc>
	<defs/>
	<path d="M4.43 1.71C4.5 1.65 4.57 1.59 4.62 1.56C6.18 0.54 8 0 10 0C11.88 0 13.64 0.5 15.14 1.41C15.25 1.5 15.54 1.69 15.7 1.88C14.25 0.28 10 3.7 10 3.7C8.5 2.57 7.17 1.79 6.16 1.5C5.31 1.28 4.73 1.5 4.46 1.7L4.43 1.71ZM17.34 3.21C17.29 3.15 17.24 3.1 17.2 3.06C16.84 2.65 16.37 2.56 16 2.59C15.61 2.71 13.9 3.32 11.8 5.31C11.8 5.31 14.17 7.6 15.62 9.96C17.07 12.31 17.93 14.16 17.4 16.73C19 14.95 20 12.59 20 10C20 7.38 19 5 17.34 3.21ZM13.73 10.96C13.08 10.24 12.13 9.21 10.86 7.95C10.59 7.67 10.3 7.4 10 7.09C10 7.09 9.53 7.56 8.93 8.16C8.16 8.93 7.17 9.95 6.61 10.54C5.63 11.59 2.81 14.89 2.65 16.74C2.65 16.74 2 15.28 3.4 11.89C4.3 9.67 7 6.35 8.15 5.28C8.15 5.28 7.12 4.14 5.82 3.34L5.77 3.32C5.14 2.95 4.46 2.65 3.8 2.62C3.13 2.66 2.71 3.15 2.71 3.15C0.96 5.01 -0.01 7.45 1.52e-5 10C1.52e-5 12.65 1.05 15.19 2.92 17.07C3.85 17.99 4.95 18.73 6.17 19.23C7.38 19.74 8.68 20 10 20C12.93 20 15.57 18.74 17.4 16.73C17.4 16.73 17.19 15.4 15.84 13.5C15.53 13.07 14.37 11.69 13.73 10.96Z" fill="#FFFFFF" fill-opacity="1.000000" fill-rule="nonzero"/>
</svg>
