<svg width="20.000000" height="20.000000" viewBox="0 0 20 20" fill="none" xmlns="http://www.w3.org/2000/svg" xmlns:xlink="http://www.w3.org/1999/xlink">
	<desc>
			Created with Pixso.
	</desc>
	<defs/>
	<path d="M11.81 20L14.87 20C17.68 20 20 17.68 20 14.87L20 5.12C20 2.31 17.68 0 14.87 0L11.75 0C11.68 0 11.62 0.06 11.62 0.12L11.62 19.87C11.62 19.93 11.68 20 11.81 20ZM15.62 9C16.75 9 17.62 9.93 17.62 10.99C17.62 12.12 16.68 12.99 15.62 12.99C14.49 12.99 13.62 12.12 13.62 10.99C13.56 9.87 14.49 9 15.62 9ZM9.49 0L5.12 0C2.31 0 0 2.31 0 5.12L0 14.87C0 17.68 2.31 20 5.12 20L9.49 20C9.56 20 9.62 19.93 9.62 19.87L9.62 0.12C9.62 0.06 9.56 0 9.49 0ZM8.06 18.37L5.12 18.37C4.66 18.37 4.2 18.28 3.78 18.11C3.35 17.93 2.97 17.67 2.64 17.35C2.32 17.02 2.06 16.64 1.88 16.21C1.71 15.79 1.62 15.33 1.62 14.87L1.62 5.12C1.62 4.66 1.71 4.2 1.88 3.78C2.06 3.35 2.32 2.97 2.64 2.64C2.97 2.32 3.35 2.06 3.78 1.88C4.2 1.71 4.66 1.62 5.12 1.62L8 1.62L8.06 18.37ZM3.12 5.99C3.12 7.06 3.93 7.87 5 7.87C6.06 7.87 6.87 7.06 6.87 5.99C6.87 4.93 6.06 4.12 5 4.12C3.93 4.12 3.12 4.93 3.12 5.99Z" fill="#FFFFFF" fill-opacity="1.000000" fill-rule="nonzero"/>
</svg>
