<svg width="21.982529" height="22.000000" viewBox="0 0 21.9825 22" fill="none" xmlns="http://www.w3.org/2000/svg" xmlns:xlink="http://www.w3.org/1999/xlink">
	<desc>
			Created with Pixso.
	</desc>
	<defs/>
	<path d="M19.27 9.7C20.42 9.71 20.8 9.38 20.94 9.16C21.48 8.46 20.64 7.12 18.67 6.1C19.43 4.65 19.96 3.36 20.23 2.43C20.37 1.92 20.27 1.61 20.24 1.56C20.17 2.01 19.57 3.64 18.17 5.86C17.1 5.37 15.74 4.99 14.14 4.84C13.76 4.11 12.64 2.09 11.54 1.01C10.82 0.3 10.24 0.04 9.78 0C9.19 -0.06 8.81 0.25 8.61 0.48C7.87 1.28 7.56 2.58 7.53 4.09C7.22 3.56 6.79 3.04 6.31 2.98L6.3 2.98C5.41 2.83 4.65 4.23 4.75 6.47C3.11 6.53 1.7 6.72 0.76 6.95C0.33 7.06 0.06 7.27 0 7.37C0.04 7.35 0.96 6.97 4.79 6.97C5.02 9.25 6.07 11.35 5.91 10.98C5.49 11.64 4.27 13.66 3.88 15.18C3.62 16.16 3.69 16.8 3.88 17.2C4.12 17.75 4.59 17.92 4.88 17.99C5.96 18.23 7.26 17.83 8.61 17.08C8.28 17.63 8.01 18.3 8.22 18.77C8.53 19.61 10.13 19.57 12.01 18.36C12.88 19.75 13.74 20.85 14.41 21.55C14.52 21.66 14.65 21.77 14.79 21.85C15.01 21.99 15.15 22 15.15 22C14.8 21.71 13.69 20.36 12.46 18.05C13.42 17.36 14.43 16.38 15.36 15.07C20.64 15.27 21.52 14 21.73 13.71C22.36 12.87 21.88 11.26 19.27 9.7ZM15.92 14.26C16.94 12.65 17.23 11.35 17.19 10.29C18.39 11.05 19.22 11.91 19.3 12.82C19.34 13.38 18.95 14.07 15.92 14.26ZM9.31 16.66C9.73 16.39 10.15 16.1 10.56 15.78C10.85 16.35 11.15 16.9 11.45 17.42C9.7 18.36 8.49 17.97 9.31 16.66ZM18.55 9.3C18.11 9.07 17.64 8.85 17.15 8.65C17.5 8.13 17.82 7.6 18.13 7.07C19.81 8.1 20.11 9.35 18.55 9.3ZM11.99 17.1C11.75 16.62 11.51 16.09 11.28 15.54C13.13 15.59 13.96 14.73 14 14.66C14 14.67 12.92 15.33 11.31 15.19C12.62 14.09 13.84 12.88 14.96 11.58C15.34 11.14 15.7 10.7 16.03 10.25C16.02 10.23 15.97 10.12 15.33 9.74C13.11 12.33 10.93 13.95 9.62 14.72C8.73 14.24 7.86 13.35 7.22 12.08C6.36 10.36 5.93 8.54 5.87 7.09C6.4 7.13 6.95 7.18 7.54 7.26C6.58 8.84 6.92 9.97 6.96 10.02C6.96 10.01 6.92 8.77 7.82 7.46C8.21 9.71 8.86 11.92 9.75 14.02C9.78 14.01 9.82 14.06 10.55 13.67C9.42 10.46 9.1 7.73 9.09 6.21C9.95 5.68 11.15 5.36 12.59 5.45C14.51 5.56 16.3 6.1 17.59 6.77C17.28 7.22 16.95 7.68 16.59 8.16C15.7 6.54 14.56 6.27 14.49 6.28C14.49 6.28 15.6 6.89 16.27 8.31C14.66 7.72 13 7.27 11.32 6.95C10.75 6.85 10.19 6.76 9.62 6.69C9.62 6.71 9.55 6.77 9.53 7.56C12.88 8.19 15.4 9.28 16.72 10.02C16.75 11.04 16.42 12.24 15.63 13.44C14.57 15.04 13.2 16.32 11.99 17.1ZM13.16 4.77C11.25 4.7 10 5.09 9.1 5.66C9.18 3.41 10.01 2.38 10.74 2.43C11.46 2.24 13.1 4.66 13.16 4.77ZM7.55 4.9C7.56 5.42 7.61 5.96 7.68 6.51C7.06 6.47 6.44 6.45 5.86 6.45C5.85 6.59 5.85 4.26 6.92 4.32L6.92 4.32C7.17 4.37 7.38 4.62 7.55 4.9ZM6.34 11.87C7.23 13.57 8.21 14.47 9.14 14.98C7.13 16.04 5.81 15.84 5.5 15.17C5.49 15.16 5.02 14.51 6.34 11.87Z" fill="#FFFFFF" fill-opacity="1.000000" fill-rule="nonzero"/>
</svg>
