<svg width="25.913208" height="20.000000" viewBox="0 0 25.9132 20" fill="none" xmlns="http://www.w3.org/2000/svg" xmlns:xlink="http://www.w3.org/1999/xlink">
	<desc>
			Created with Pixso.
	</desc>
	<defs/>
	<path d="M25.68 15.3C25.17 15.94 23.93 16.4 23.93 16.4L14.71 19.71L14.71 17.27L21.49 14.85C22.27 14.57 22.38 14.18 21.76 13.98C21.13 13.77 20 13.83 19.23 14.11L14.71 15.7L14.71 13.16L14.97 13.08C14.97 13.08 16.27 12.61 18.11 12.41C19.95 12.21 22.2 12.44 23.97 13.11C25.96 13.74 26.18 14.66 25.68 15.3ZM15.58 11.14L15.58 4.89C15.58 4.16 15.45 3.48 14.76 3.29C14.23 3.12 13.91 3.61 13.91 4.34L13.91 20L9.68 18.66L9.68 0C11.48 0.33 14.09 1.12 15.5 1.59C19.07 2.82 20.28 4.34 20.28 7.79C20.28 11.14 18.21 12.41 15.58 11.14L15.58 11.14ZM1.94 17.01C-0.1 16.43 -0.44 15.24 0.49 14.55C1.35 13.91 2.81 13.43 2.81 13.43L8.87 11.27L8.87 13.73L4.51 15.29C3.74 15.56 3.62 15.95 4.25 16.16C4.87 16.36 6 16.3 6.77 16.03L8.86 15.27L8.86 17.47L8.45 17.53C6.27 17.89 4.04 17.71 1.94 17.01L1.94 17.01Z" fill="#FFFFFF" fill-opacity="1.000000" fill-rule="nonzero"/>
</svg>
