<svg width="86.773926" height="40.000000" viewBox="0 0 86.7739 40" fill="none" xmlns="http://www.w3.org/2000/svg" xmlns:xlink="http://www.w3.org/1999/xlink">
	<desc>
			Created with Pixso.
	</desc>
	<defs/>
	<path id="path2894" d="M22.55 33C22.55 33 22.73 33.8 23.18 33.5C23.62 33.2 23.81 32.74 24.26 32.74C24.7 32.74 26.57 32.39 27.02 32.74C27.47 33.1 27.51 32.79 27.74 32.79C27.96 32.79 28.62 32.91 28.62 32.91C29.2 32.85 29.08 31.94 28.66 31.67C28.07 31.21 27.26 30.9 26.66 30.44C26.6 29.98 26.54 29.53 26.48 29.08C26.65 28.85 26.81 28.61 26.98 28.38C26.98 27.62 26.98 26.87 26.98 26.12C26.89 25.92 26.8 25.72 26.71 25.52C26.68 24.95 26.65 24.38 26.62 23.81C26.54 23.71 26.47 23.61 26.39 23.51C26.39 23.29 26.39 23.07 26.39 22.85C26.54 22.64 26.85 22.42 27 22.2C27.04 21.78 26.84 21.49 26.88 21.07C26.78 20.53 26.77 19.88 26.66 19.34C26.66 18.69 26.66 18.04 26.66 17.38C27.1 17.25 27.2 17.06 27.23 16.87C27.27 16.62 27.15 16.32 27.02 15.73C26.96 12.6 26.93 9.34 26.87 6.22C27.11 5.84 27.4 5.65 27.4 5.37C27.41 5.15 27.18 4.98 26.89 4.73C26.89 4.51 26.89 4.3 26.89 4.08C26.89 4.08 27.38 3.08 27.78 3.08C28.19 3.08 28.46 2.77 28.46 2.47C28.83 1.74 28.05 1.67 28.05 1.67C27.2 1.65 26.23 1.7 25.4 1.68C24.66 1.66 24.06 1.58 23.34 1.57C23.03 1.59 22.72 1.6 22.4 1.62C21.63 1.85 21.79 2.27 22.09 2.51C22.45 2.73 22.75 2.99 23.16 3C23.67 3.01 24.07 3.17 24.24 3.68C24.29 5.69 24.33 7.69 24.38 9.7C24.39 11.18 24.44 12.66 24.45 14.14C24.47 15.63 24.45 17.11 24.47 18.59C24.49 20.33 24.52 22.07 24.55 23.81C24.55 23.81 24.47 24.46 24.33 24.61C24.2 24.76 24.24 26.07 24.24 26.07C24.74 26.5 24.63 26.44 24.29 27.02C24.26 28.31 24.23 29.6 24.2 30.89C24.08 31.12 23.96 31.36 23.84 31.59C23.84 31.59 22.55 32.35 22.55 33ZM0.83 39.24C0.16 39.1 0.04 38.78 0.27 38.59C0.41 38.48 0.79 38.48 0.96 38.4C1.21 38.28 1.47 38.13 1.62 37.94C1.87 37.63 1.72 36.89 2.02 36.29C2.32 33.77 2.41 30.42 2.11 29.29C1.94 27.56 2.12 21.79 2.12 21.06C2.31 20.71 2.39 20.68 2.39 20.07C2.39 19.83 2.55 19.45 2.38 19.15C2.13 18.87 2.2 17.75 2.18 17.12C2.15 16.19 2.22 16.2 2.48 15.35C2.58 15.03 2.61 14.65 2.48 14.34C2.27 13.85 1.96 14.42 1.98 13.43C2.03 11.02 2.12 8.59 2.06 6.18C2.07 5.97 2.43 5.93 2.5 5.73C2.59 5.47 2.62 5.15 2.5 4.91C2.44 4.77 2.06 4.95 1.95 4.84C1.28 4.2 0.43 3.8 0.04 2.94C-0.11 2.6 0.13 1.87 0.45 1.71C0.98 1.45 1.97 1.72 2.55 1.62C2.87 1.56 3.06 1.38 3.38 1.36C5.85 1.26 8.39 1.01 10.85 1.25C11.24 1.29 11.37 1.99 11.73 2.16C12.22 2.39 12.94 2.34 13.32 2.75C13.92 3.39 14.35 3.93 14.43 4.82C14.53 5.92 14.71 7.17 14.71 8.01C14.7 8.72 14.48 9.36 14.17 9.97C13.74 10.8 13.22 11.58 12.67 12.4C12.35 12.87 11.78 13.32 11.64 13.86C11.5 14.42 12.95 14.01 13.24 14.5C13.53 14.97 13 15.52 13.16 16.05C13.3 16.52 14.12 16.57 14.22 17.05C14.47 18.31 13.92 19.63 14.13 20.89C14.2 21.29 14.84 21.31 14.9 21.71C14.98 22.59 14.95 23.51 14.96 24.44C14.96 25.43 15 26.42 14.99 27.36C14.96 27.71 14.5 27.92 14.46 28.27C14.35 29.21 14.67 30.27 14.46 31.19C14.25 32.16 13.47 32.84 13.16 33.78C12.9 34.6 12.98 35.79 12.55 36.3C11.85 36.52 10.98 37.02 10.42 37.43C9.61 38.03 9.1 38.72 8.85 38.74C8.53 39.02 7.87 38.84 7.48 38.98C7.11 39.12 7.08 39.42 6.7 39.37C6.4 39.33 6.49 39.08 6.26 38.88C6.12 38.77 5.86 38.76 5.73 38.88C4.94 39.52 5.53 39.35 4.63 39.27C3.72 39.19 1.94 39.47 0.83 39.24ZM5.94 35.57C6.15 35.18 6.35 34.78 6.56 34.39C6.5 33.08 6.44 31.77 6.38 30.46C6.56 30.22 6.74 29.97 6.91 29.73C6.91 28.41 6.91 27.09 6.91 25.77C6.91 25.17 6.83 24.57 6.83 23.97C6.21 23.46 6.51 23.47 7.01 22.88C7.01 22.3 7.15 21.83 7.15 21.25C7.09 20.77 7.03 20.28 6.97 19.79C7.06 19.55 7.15 19.31 7.23 19.06C7.23 18.33 7.32 17.74 7.32 17C7.32 16.32 7.34 16.09 7.46 16.13C7.59 16.17 7.82 16.49 8.24 16.9C8.57 17.21 8.89 17.52 9.21 17.82C9.8 18.4 10.38 18.45 10.14 19.38C9.92 20.26 10.56 20.5 10.36 21.37C10.21 22.03 10.01 22.44 10.05 22.85C10.08 23.1 10.19 23.34 10.46 23.65C10.71 23.94 10.79 23.92 10.64 24.27C10.41 24.81 10.22 25.13 10.19 25.45C10.17 25.87 10.39 26.06 10.59 26.8C10.76 27.41 10.74 27.81 10.59 28.41C10.41 29.13 10.23 29.85 10.05 30.57C10.03 31.11 9.98 31.66 9.94 32.2C9.89 33.03 9.77 33.05 9.2 33.65C8.67 34.19 8 34.65 7.49 35.13C6.94 35.34 6.5 35.36 5.94 35.57ZM7.29 12.5C7.74 12.51 7.94 12.55 8.08 12.5C8.22 12.44 8.3 12.28 8.5 11.89C8.76 11.38 9.15 10.75 9.47 10.7C10.01 10.62 10.29 10.54 10.29 10.54C10.29 10.54 10.57 10.48 10.48 9.79C10.38 9.09 10.18 8.42 10.36 8.23C10.53 8.04 10.57 7.5 10.38 7.29C10.2 7.07 10.02 6.86 10.32 6.56C10.62 6.27 10.83 5.78 10.11 5.86C9.39 5.94 9.4 5.62 9.31 5.41C9.23 5.19 8.44 5.24 8.03 5.22C7.62 5.3 7.27 5.27 7.28 5.7C7.3 6.13 7.23 8.2 7.23 8.42C7.24 8.63 7.29 12.5 7.29 12.5ZM30.14 31.34C30.1 31.52 29.69 31.52 29.72 31.71C29.76 31.96 29.78 32.36 30.04 32.39C30.78 32.49 31.81 32.19 32.55 32.33C32.84 32.38 32.85 32.88 33.12 33.01C33.34 33.01 33.68 33.01 33.96 33.01C34.17 32.9 34.12 32.5 34.33 32.38C34.58 32.23 34.94 32.17 35.22 32.28C35.37 32.33 35.16 32.73 35.32 32.75C36.63 32.7 37.79 32.84 39.03 32.75C39.27 32.71 39.02 32.36 39.22 32.21C39.45 32.04 40.02 32.33 40.06 32.05C40.26 30.6 39.95 28.97 40.09 27.51C40.13 27.04 40.58 26.77 40.68 26.31C40.71 26.16 40.9 26.15 40.91 26C40.96 25.48 40.95 24.84 40.82 24.33C40.64 24.14 40.11 24.08 39.93 24.16C39.73 24.31 39.91 24.83 39.78 25.03C39.71 25.14 39.48 24.93 39.41 25.03C39.35 25.14 39.43 25.3 39.46 25.43C39.48 25.51 39.48 25.58 39.41 25.61C39.07 25.78 38.56 25.38 38.26 25.61C37.96 25.84 38.3 26.29 38.04 26.57C37.64 27.02 36.76 27.29 36.36 27.75C35.87 28.29 35.92 28.84 35.36 29.31C34.93 29.68 34.19 29.71 33.66 29.93C33.05 30.18 32.76 30.63 32.13 30.81C31.94 30.87 31.7 30.53 31.76 30.34C32.24 28.8 32.85 27.25 33.36 25.73C33.69 24.75 33.85 24.13 34.2 23.16C34.57 22.15 35.05 20.91 35.65 20.02C35.77 19.85 36.16 19.96 36.23 19.76C36.38 19.26 36.09 18.7 36.23 18.19C36.33 17.82 36.72 17.46 37.05 17.25C37.27 17.11 37.62 17.3 37.72 17.06C37.94 16.49 37.73 15.89 37.88 15.3C37.97 14.9 38.25 14.65 38.42 14.28C38.65 13.79 38.64 13.36 38.89 12.87C39.1 12.48 39.54 11.93 39.67 11.5C39.84 10.92 39.7 10.63 39.75 10.02C39.77 9.86 40.01 9.77 40.02 9.6C40.1 7.63 40.2 5.66 40.09 3.69C40.08 3.53 39.72 3.53 39.72 3.37C39.73 2.77 39.8 2.24 39.77 1.7C39.77 1.59 39.8 1.5 39.7 1.5C38.06 1.43 36.44 1.47 34.8 1.49C33.45 1.5 32.11 1.4 30.77 1.49C30.56 1.5 30.38 1.54 30.24 1.68C30.11 1.83 30.04 2.13 30.05 2.33C30.09 3.2 30.03 4.15 30.05 5.21C30.05 5.4 30.44 5.28 30.5 5.47C30.69 5.98 30.7 6.55 30.66 7.09C30.65 7.26 30.44 7.5 30.44 7.67C30.52 8.28 30.6 8.71 30.71 9.29C30.78 9.52 30.97 9.69 31.03 9.92C31.09 10.19 30.85 10.74 31.13 10.76C31.22 10.76 31.54 10.82 31.71 10.76C31.92 10.68 31.63 10.29 31.71 10.08C31.76 9.92 32.05 9.92 32.07 9.76C32.21 8.9 31.97 7.89 32.11 7.03C32.15 6.76 32.3 6.49 32.53 6.35C32.72 6.23 33.07 6.52 33.21 6.35C33.4 6.1 33.21 5.81 33.33 5.52C33.5 5.1 33.78 4.72 34.12 4.42C34.43 4.15 34.73 3.82 35.15 3.77C36.07 3.68 37.17 3.76 38.41 3.71C38.53 3.7 38.56 3.88 38.57 4C38.61 4.58 38.72 5.36 38.57 5.73C38.35 6.27 37.86 6.88 37.37 7.44C37.03 7.82 36.69 8.17 36.43 8.55C36.11 9.01 36.58 9.64 36.42 10.18C36.26 10.73 35.81 11.31 35.46 11.76C35.17 12.14 34.76 12.33 34.49 12.71C34.15 13.19 33.96 13.67 33.75 14.21C33.57 14.67 33.46 15.15 33.38 15.63C33.32 16.01 33.5 16.43 33.33 16.78C33.21 17.03 32.92 16.98 32.74 17.2C32.48 17.49 32.34 17.87 32.21 18.24C32.07 18.68 32.06 18.94 31.84 19.35C31.58 19.8 31.08 20.24 30.85 20.71C30.6 21.21 30.58 21.83 30.45 22.38C30.33 22.91 30.23 23.42 30.12 23.95C29.99 24.61 29.84 25.27 29.86 25.94C29.86 26.15 30.08 26.29 30.17 26.47C30.25 26.62 30.44 26.77 30.38 26.94C30.31 27.16 29.89 27.18 29.86 27.41C29.82 27.65 29.88 27.87 30.06 28.04C30.21 28.18 30.53 28.12 30.64 28.3C30.76 28.49 30.73 28.77 30.64 28.98C30.56 29.15 30.27 29.11 30.24 29.29C30.09 30.05 30.27 30.58 30.14 31.34ZM75.54 38.76C75.44 38.45 75.68 38.39 75.85 38.22C76.09 37.99 76.32 37.75 76.41 37.29C76.45 37.11 76.63 36.82 76.67 36.53C76.73 36.12 76.64 35.69 76.53 35.42C76.38 35.06 76.13 34.88 76.22 34.55C76.25 34.33 76.74 34.3 77.12 34.13C77.32 34.05 77.49 33.87 77.56 33.71C77.64 33.49 77.36 33.53 77.22 33.25C77.07 32.96 77.05 32.53 76.93 32.31C76.73 31.93 76.36 31.42 76.34 30.99C76.31 29.85 76.64 28.69 76.68 27.58C76.72 26.66 76.94 26.44 76.87 25.49C76.83 25.02 76.58 24.67 76.31 24.19C76.1 23.79 75.81 23.4 75.7 23.02C75.51 22.35 75.7 21.55 75.59 20.87C75.56 20.73 75.23 20.57 75.21 20.43C75.13 19.49 75.23 18.52 75.17 17.58C75.14 17.41 75 17.37 74.98 17.2C74.93 16.67 74.98 16.16 74.98 15.71C74.98 15.31 74.92 14.97 74.92 14.51C74.92 14.33 74.78 14.21 74.77 14.04C74.74 13.02 74.78 11.89 74.77 10.87C74.75 9.78 74.69 8.79 74.77 7.71C74.79 7.53 75.16 7.53 75.15 7.35C75.12 6.52 75.05 6.19 75.06 5.35C75.07 5.25 75.26 5.03 75.27 4.93C75.33 4.24 75.42 3.54 75.24 2.95C75.11 2.52 74.79 2.38 74.42 2.1C74.09 1.86 73.72 1.46 73.42 1.23C73.03 0.95 72.77 0.72 72.48 0.29C72.3 0.03 72.59 0.01 72.92 0C73.34 -0.01 73.8 0.02 74.19 0.08C74.33 0.1 74.58 0.34 74.71 0.39C75.01 0.51 75.22 0.35 75.53 0.45C75.77 0.52 76.77 1.05 77.04 1.2C77.41 1.41 77.53 1.72 77.91 1.9C77.98 1.93 79.17 2.27 79.3 2.31C79.63 2.39 79.83 2.15 80.15 2.23C80.52 2.33 81.18 2.51 81.6 2.64C81.84 2.71 81.99 2.99 82.23 3.04C83.4 3.27 83.19 2.88 84.12 3.81C84.4 4.08 84.85 4.3 85.05 4.63C85.34 5.09 85.37 5.66 85.55 6.17C85.69 6.56 86.01 6.89 86.09 7.3C86.29 8.43 86.08 9.6 86.22 10.73C86.26 11.08 86.62 11.44 86.65 11.79C86.79 13.12 86.82 14.43 86.66 15.76C86.6 16.2 86.23 16.38 86.16 16.83C86.05 17.58 86.27 18.34 86.22 19.09C86.19 19.46 85.99 19.83 85.8 20.14C85.66 20.36 85.35 20.45 85.25 20.69C84.98 21.33 85.05 22.2 84.92 22.89C84.88 24.21 84.91 25.23 84.97 26.55C85.01 27.47 85.1 28.31 84.98 29.23C84.94 29.55 84.68 29.72 84.63 30.04C84.5 30.92 84.61 31.83 84.52 32.72C84.51 32.87 84.29 33.04 84.25 33.19C84.2 34 84.14 35.18 83.79 36.09C83.55 36.69 82.99 37.3 82.45 37.65C81.92 37.99 81.35 38.06 80.75 38.21C80.37 38.31 79.94 38.26 79.59 38.45C79.38 38.55 79.52 38.56 79.33 38.69C79.22 38.77 79.02 38.78 78.92 38.69C78.77 38.57 78.82 38.52 78.65 38.44C78.38 38.32 78.04 38.33 77.77 38.44C77.58 38.52 77.65 38.67 77.45 38.71C77.03 38.8 76.54 38.9 76.09 38.89C75.83 38.88 75.61 39 75.54 38.76ZM79.44 8.93C80.02 8.9 80.13 8.87 80.65 9.15C81.19 9.44 81.3 9.63 81.63 10.15C81.8 10.31 81.97 10.47 82.14 10.64C82.83 11.3 83.15 12.24 83.44 13.12C83.48 14.08 83.69 15.75 83.21 16.62C82.97 17.05 82.88 17.39 82.84 17.76C82.72 18.78 82.43 18.62 82.14 19.4C82.06 19.61 82.07 19.88 82.07 20.38C82.04 22.17 82.01 23.96 81.99 25.75C81.97 26.89 81.76 27.44 81.29 28.49C81.02 29 80.88 29.32 80.88 29.9C80.88 30.58 80.74 30.89 80.47 31.51C80.31 31.88 80.14 32.26 79.98 32.64C79.78 33.08 79.6 33.24 79.47 33.18C79.34 33.12 79.26 32.84 79.27 32.41C79.28 30.23 79.29 28.04 79.3 25.86C79.33 23.53 79.35 21.21 79.38 18.89C79.35 18.39 79.37 18.28 79.04 17.91C79.01 17.15 78.86 16.81 78.62 16.1C78.32 15.53 78.36 15.12 78.35 14.48C78.33 12.86 78.31 11.25 78.29 9.63C78.28 8.64 78.51 8.98 79.44 8.93ZM41.36 36.71C41.18 35.83 41.31 35.13 41.35 34.47C41.38 34.31 41.69 34.46 41.78 34.33C41.91 34.13 42.02 33.86 41.94 33.64C41.89 33.5 41.8 33.69 41.72 33.57C41.62 33.4 41.65 33.13 41.77 32.98C41.95 32.75 42.31 32.81 42.43 32.55C42.59 32.2 42.31 31.75 42.43 31.38C42.47 31.26 42.77 31.5 42.8 31.38C42.94 30.81 42.77 30.2 42.86 29.62C42.88 29.47 43.01 29.4 43.03 29.25C43.1 28.61 43.14 27.96 43.03 27.33C42.96 26.93 42.64 26.65 42.59 26.26C42.39 24.83 42.33 23.28 42.51 21.85C42.66 20.74 43.37 19.02 43.78 17.98C44.04 17.33 44.17 17.53 44.4 16.87C44.47 16.67 44.52 16.43 44.46 16.23C44.37 15.98 44.07 15.79 44.11 15.52C44.17 15.2 44.56 15.21 44.67 14.9C44.81 14.48 44.52 13.98 44.67 13.56C44.84 13.07 45.43 12.79 45.58 12.28C45.71 11.81 45.57 11.04 45.7 10.56C45.97 9.61 46.29 9 46.75 8.12C47.02 7.61 47.49 7.17 47.7 6.63C47.91 6.11 47.89 5.42 47.98 4.98C47.64 4.56 46.88 5.14 46.38 4.96C46.12 4.87 46.12 4.45 45.87 4.35C45.33 4.32 44.81 4.3 44.43 4.59C43.91 4.98 43.91 5.43 43.71 6.04C43.41 6.96 43.64 7.99 43.26 8.87C43.11 9.22 42.51 9.32 42.22 9.56C42.06 9.69 41.99 9.83 41.79 9.83C41.59 9.83 41.41 9.76 41.36 9.56C41.26 9.17 41.38 8.75 41.36 8.34C41.35 8.02 41.17 7.69 41.26 7.38C41.3 7.22 41.67 7.28 41.68 7.11C41.84 5.28 41.62 3.46 41.65 1.71C41.66 1.09 41.82 1.18 42.43 1.18C43.45 1.17 45.06 1.17 46.24 1.17C48.29 1.16 50.35 1.08 52.4 1.14C52.71 1.16 53.1 1.27 53.13 1.58C53.17 2.2 52.76 2.79 52.47 3.34C52.32 3.63 51.98 3.82 51.87 4.12C51.68 4.64 51.89 5.26 51.69 5.78C51.56 6.09 50.94 6.15 50.82 6.47C50.65 6.92 50.95 7.46 50.77 7.91C50.68 8.13 50.21 8.01 50.13 8.23C49.86 8.99 50.02 9.85 49.81 10.63C49.69 11.06 49.37 11.36 49.31 11.8C49.15 13 49.41 14.23 49.31 15.43C49.29 15.69 49.01 15.87 48.94 16.12C48.76 16.72 48.65 17.36 48.45 17.94C48.36 18.19 48.03 18.32 47.97 18.58C47.87 18.96 48.12 19.39 47.97 19.75C47.78 20.21 47.11 20.39 47.01 20.87C46.72 22.23 47.17 23.66 46.96 25.03C46.87 25.65 46.33 26.13 46.22 26.74C46.07 27.53 46.32 28.46 46.12 29.23C45.93 29.98 45.39 30.63 45.12 31.35C45.05 32.06 44.21 32.71 44.67 33.25C45.23 33.32 46.15 33.43 46.8 33.14C47.1 33 46.76 32.38 47.02 32.18C47.81 31.57 48.73 31.35 49.62 30.9C50.13 30.64 50.77 30.39 51.23 30.05C51.46 29.87 51.49 29.45 51.76 29.35C51.93 29.29 51.96 29.7 52.14 29.73C52.73 29.83 53.25 29.57 53.83 29.73C54.07 29.79 54.06 30.1 54.12 30.34C54.18 30.54 54.27 30.77 54.15 30.95C54.08 31.06 53.83 30.94 53.78 31.06C53.68 31.31 53.72 31.6 53.78 31.86C53.83 32.06 54.01 32.19 54.03 32.39C54.12 33.47 54.15 34.57 54.03 35.65C54 35.87 53.88 36.11 53.65 36.13C52.11 36.06 50.69 36.17 49.15 36.18C48.99 36.17 49.08 35.88 48.94 35.82C48.54 35.65 47.82 35.63 47.4 35.72C46.91 35.84 46.87 36.24 46.38 36.34C45.49 36.52 44.46 36.34 43.56 36.48C43.25 36.53 43 36.79 42.69 36.87C42.26 36.98 41.58 37.09 41.36 36.71ZM17.6 39.22C16.94 39.45 16.16 39.22 15.46 39.23C15.24 39.24 14.89 39.41 14.68 39.34C14.45 39.28 14.09 38.83 14.23 38.64C14.79 37.89 15.89 37.8 16.39 37.03C16.69 36.57 16.41 35.96 16.54 35.43C16.58 35.26 16.86 35.28 16.95 35.13C17.02 35.02 17.04 34.83 16.95 34.73C16.75 34.49 16.62 34.99 16.54 34.28C16.47 33.64 16.45 33 16.51 32.37C16.55 31.96 16.84 32.05 16.9 31.84C17 31.44 16.78 31.15 16.89 30.75C16.94 30.58 17.27 30.62 17.36 30.46C17.45 30.31 17.46 30.08 17.36 29.94C17.16 29.64 16.62 29.64 16.56 29.29C16.45 28.64 16.51 27.94 16.52 27.29C16.53 26.61 16.48 25.92 16.54 25.22C16.55 25.09 16.85 25.09 16.89 24.97C16.98 24.73 16.92 24.46 16.89 24.21C16.86 24.01 16.93 23.6 16.91 23.4C16.89 23.08 16.75 22.97 16.9 22.69C17 22.5 17.33 22.62 17.36 22.4C17.52 21.26 17.18 20.1 17.3 18.95C17.32 18.76 17.63 18.79 17.68 18.6C17.76 18.3 17.78 17.95 17.65 17.67C17.59 17.54 17.29 17.54 17.28 17.39C17.15 15.72 17.37 14.14 17.24 12.47C17.23 12.31 16.84 12.53 16.84 11.86C16.83 11.14 16.76 10.48 16.77 9.96C16.78 9.56 17.65 9.55 17.64 9.15C17.62 8.54 17.72 7.85 17.58 7.22C17.53 7.02 17.27 7.05 17.18 6.86C17.1 6.69 17.18 6.51 17.25 6.33C17.34 6.12 17.59 5.98 17.65 5.75C17.76 5.34 17.75 4.89 17.65 4.47C17.62 4.33 17.38 4.2 17.32 4.08C17.2 3.85 17.25 3.64 17.09 3.44C16.98 3.3 16.65 3.39 16.51 3.27C16.16 2.97 15.96 2.64 15.66 2.36C15.39 2.11 15.01 1.92 14.8 1.54C14.66 1.3 14.82 0.88 15.04 0.71C15.21 0.58 15.48 0.61 15.67 0.71C15.82 0.79 15.82 1.12 15.99 1.14C16.74 1.24 17.49 0.91 18.23 1.08C18.56 1.15 18.58 1.56 18.88 1.69C19.08 1.78 19.44 1.61 19.63 1.73C19.9 1.91 20.12 2.3 20.34 2.52C20.61 2.8 20.85 2.92 20.98 3.31C21.16 3.81 21.08 4.32 21.08 4.84C21.07 5.3 21.14 5.76 21.1 6.22C21.09 6.38 20.79 6.3 20.75 6.45C20.67 6.72 20.73 7.02 20.86 7.25C20.96 7.43 21.23 7.34 21.3 7.53C21.45 7.97 21.47 8.51 21.36 8.97C21.32 9.14 20.99 9.03 20.98 9.2C20.85 11.4 20.82 13.61 21.04 15.8C21.08 16.17 21.66 16.31 21.7 16.68C21.92 18.75 21.72 20.85 21.64 22.93C21.63 23.22 21.48 23.59 21.36 23.82C21.22 24.06 21.31 24.31 21.31 24.58C21.32 24.93 21.28 25.31 21.33 25.67C21.36 25.88 21.78 26.07 21.76 26.28C21.72 26.84 21.8 27.11 21.84 27.67C21.85 27.94 21.36 28.11 21.21 28.33C21.1 28.49 21.03 28.8 21.12 28.97C21.21 29.13 21.36 29.05 21.41 29.22C21.48 29.47 21.48 29.69 21.36 29.91C21.28 30.06 20.98 30.04 20.95 30.2C20.87 30.67 21.13 31.14 21.07 31.61C21.05 31.75 20.74 31.7 20.72 31.84C20.61 32.53 20.83 33.25 20.72 33.94C20.67 34.2 20.27 34.32 20.25 34.59C20.24 34.73 20.59 34.63 20.66 34.76C20.77 34.97 20.49 35.4 20.72 35.46C21.46 35.68 22.39 35.62 23.14 35.43C23.57 35.31 23.75 34.72 24.19 34.67C24.72 34.62 25.11 34.97 25.63 35.07C26.32 35.19 27.07 35.21 27.75 35.03C28.15 34.92 28.38 34.5 28.79 34.45C30.57 34.21 32.21 34.35 34 34.34C35.7 34.34 37.86 34.25 39.12 34.39C39.84 34.41 39.06 36.95 39.32 38.29C39.38 38.58 39.63 38.74 39.78 39.01C40.01 39.44 40.11 39.66 39.49 39.66C38.32 39.65 37.14 39.74 35.87 39.69C35.63 39.68 35.64 39.2 35.41 39.11C35.15 39 34.85 39.23 34.59 39.16C34.19 39.07 33.74 38.69 33.34 38.64C32.25 38.51 31.16 38.78 30.08 38.63C29.84 38.6 29.81 38.12 29.56 38.11C27.03 37.92 24.62 38.19 22.09 38.05C21.55 38.02 21.5 37.83 21.15 37.73C20.67 37.59 19.8 37.53 19.34 37.75C18.49 38.15 18.49 38.9 17.6 39.22ZM47.99 29.35C47.46 29.33 47.43 28.48 47.47 27.96C47.51 27.43 48.2 27.46 48.45 26.99C48.63 26.64 48.36 26.04 48.57 25.71C48.79 25.36 49.39 25.37 49.61 25.02C49.74 24.81 49.55 24.42 49.55 24.19C49.57 23.62 49.7 23.2 49.67 22.64C49.66 22.34 49.53 21.81 49.59 21.53C49.67 21.13 49.9 21.23 50.02 20.84C50.16 20.36 49.92 19.81 50.07 19.33C50.14 19.14 50.63 19.24 50.6 19.04C50.55 18.81 50.12 18.93 50.08 18.7C49.94 17.97 49.94 17.12 50.13 16.41C50.26 15.97 50.76 15.63 50.89 15.18C51.02 14.72 50.74 14.19 50.89 13.73C50.99 13.42 51.5 13.36 51.58 13.04C51.77 12.29 51.6 11.37 51.8 10.62C51.9 10.23 52.1 9.78 52.36 9.54C52.51 9.39 52.64 9.28 52.71 9.05C52.81 8.73 52.57 8.46 52.63 8.13C52.68 7.84 52.9 7.65 53.04 7.4C53.22 7.07 53.29 6.66 53.46 6.33C53.71 5.84 54.05 5.44 54.23 4.93C54.36 4.54 54.07 3.92 54.24 3.55C54.49 3.03 55.11 3.04 55.35 2.52C55.54 2.1 55.21 1.55 55.41 1.13C55.56 0.82 55.89 0.69 56.23 0.68C56.47 0.67 56.77 0.84 56.86 1.07C57.02 1.53 56.87 2.07 57.06 2.52C57.39 3.31 57.96 3.77 58.28 4.56C58.44 4.97 58.26 5.57 58.37 6C58.5 6.59 58.6 7.18 58.79 7.75C59.03 8.47 59.38 9.16 59.58 9.88C59.76 10.53 59.81 11.22 59.94 11.87C60.05 12.35 60.23 12.79 60.39 13.25C60.47 13.44 60.7 13.39 60.76 13.59C60.86 13.95 60.56 14.34 60.64 14.7C60.74 15.13 61.21 15.56 61.28 16C61.4 16.7 61.28 17.37 61.29 18.09C61.31 18.74 61.38 19.35 61.46 19.97C61.52 20.36 61.73 20.91 61.74 21.19C61.78 22.23 61.82 23.26 61.83 24.3C61.85 25.83 61.85 27.46 61.77 28.99C61.77 29.17 61.55 29.26 61.49 29.42C61.25 30.06 61.06 30.4 60.9 31.06C60.82 31.41 60.82 31.78 60.67 32.11C60.58 32.3 60.17 32.47 60.1 32.67C59.95 33.14 60.14 33.6 60.1 34.18C60.08 34.67 59.87 34.96 59.66 35.42C59.52 35.73 59.29 36.23 59.21 36.55C59.11 36.91 59.28 37.3 59.18 37.66C59.12 37.84 58.87 37.93 58.83 38.12C58.73 38.59 58.92 39.11 58.77 39.57C58.69 39.83 58.63 39.79 58.38 39.9C58.21 39.98 57.74 40.07 57.72 39.88C57.6 39.07 57.83 38.51 57.7 37.71C57.55 36.77 57.16 36.19 56.92 35.27C56.81 34.82 57.01 34.01 56.8 33.6C56.42 32.86 55.19 32.56 55.24 31.72C55.29 30.92 55.77 30.39 56.26 29.74C56.6 29.29 56.82 28.56 57.03 28.05C57.18 27.67 57.27 27.23 57.28 26.86C57.29 26.3 57.14 26.06 56.72 25.72C55.84 24.99 54.42 24.33 53.33 23.8C53.17 23.73 52.98 24.03 52.98 24.21C52.98 24.39 53.19 24.53 53.21 24.7C53.27 25.22 52.96 25.76 53.18 26.23C53.42 26.73 54.36 26.88 54.22 27.41C54.12 27.77 54.03 27.9 53.73 28.07C53.55 28.18 53.34 28.17 53.13 28.18C52.48 28.21 51.82 27.98 51.19 28.11C50.52 28.26 49.91 28.57 49.28 28.88C48.87 29.09 48.45 29.36 47.99 29.35ZM53.7 21.24C53.69 20.73 53.68 20.23 53.68 19.72C53.68 19.28 53.69 18.83 53.73 18.38C53.75 18.09 54.02 17.87 54.05 17.58C54.11 17.1 53.81 16.52 53.95 16.06C54 15.87 54.48 16.06 54.59 15.9C54.62 15.85 54.69 15.55 54.81 15.29C54.89 15.14 55.04 15 55.04 14.94C55.04 14.86 55.03 14.25 55.1 13.72C55.13 13.41 55.18 13.15 55.23 13.15C55.27 13.15 55.32 13.4 55.48 13.61C55.67 13.86 55.73 14.1 55.9 14.36C55.99 14.51 56.1 14.69 56.26 14.75C56.46 14.83 56.7 14.72 56.91 14.8C57.06 14.86 57.1 15.1 57.23 15.19C57.32 15.25 57.53 15.13 57.56 15.25C57.65 15.78 57.57 16.48 57.65 17.01C57.67 17.14 57.95 17.08 57.96 17.21C58 18.13 58.02 19.05 58.02 19.97C58.02 20.79 58 21.6 57.95 22.41C57.94 22.64 57.33 22.66 57.16 22.53C56.83 22.28 56.62 21.99 56.19 21.88C56.01 21.84 56.01 21.55 55.84 21.5C55.46 21.37 54.99 21.34 54.59 21.34C54.33 21.34 53.96 21.43 53.7 21.4C53.65 21.39 53.7 21.29 53.7 21.24ZM66.01 5.37C66.01 5.9 66.07 6.47 66.07 7.03C66.07 7.74 66.02 8.38 66.02 9.1C66.03 9.87 66.08 10.71 66.08 11.46C66.08 12.07 65.97 13.24 66.02 13.75C66.08 14.4 66.12 14.51 67.01 14.51C67.44 14.51 68.02 14.07 68.45 13.62C68.74 13.32 68.7 12.79 68.81 12.56C68.98 12.23 69.26 11.92 69.32 11.53C69.4 11.03 69.22 10.62 69.55 10.3C69.68 10.17 69.8 8.73 69.8 8.42C69.8 7.97 69.33 7.3 68.79 6.7C68.41 6.29 67.97 5.92 67.78 5.64C67.43 5.13 67.17 4.9 66.75 4.81C66 4.64 66.01 4.71 66.01 5.37ZM62.03 33.58C61.88 34.14 62.31 34.36 62.82 34.69C63.33 35.02 63.91 35.45 64.46 35.9C65.4 36.66 66.03 38.06 66.64 39.43C66.95 39.1 66.73 37.55 66.9 36.62C66.94 36.43 67.16 36.28 67.18 36.08C67.25 35.36 67.27 34.63 67.18 33.91C67.14 33.64 66.88 33.44 66.81 33.18C66.76 32.98 66.77 32.76 66.81 32.55C66.86 32.3 67.06 32.08 67.08 31.82C67.15 31.07 67.2 30.31 67.08 29.56C67.04 29.28 66.61 29.12 66.63 28.83C66.65 28.6 67.16 28.62 67.18 28.38C67.23 27.71 66.99 27.06 66.91 26.39C66.72 24.88 66.61 23.37 66.46 21.86C66.4 21.32 66.18 20.77 66.27 20.23C66.56 19.49 66.82 18.74 67.09 18.15C67.22 17.97 67.4 18.31 67.53 18.49C67.98 19.05 68.56 19.75 68.69 20.45C68.84 21.32 68.38 22.08 68.48 22.95C68.5 23.21 68.9 23.16 68.99 23.4C69.42 24.54 69.77 25.73 69.98 26.93C70.23 28.31 70.3 29.71 70.35 31.1C70.36 31.71 70.34 32.33 70.16 32.91C69.92 33.74 69.4 34.4 69.15 35.21C68.88 36.04 68.79 36.3 69.68 36.29C70.03 36.29 70.44 36.31 70.71 36.44C71.44 36.81 71.74 37.65 72.43 38.07C72.58 38.17 72.77 38.3 72.98 38.41C73.96 38.96 74.07 38.58 74.27 37.72C74.54 36.59 74.61 35.57 74.78 34.45C74.87 33.88 74.85 33.3 74.88 32.73C74.91 31.91 74.97 31.1 74.93 30.28C74.91 29.9 74.91 29.49 74.66 29.2C74.48 28.98 73.92 29.2 73.85 28.93C73.75 28.55 74.29 28.23 74.3 27.84C74.15 26.78 74.01 25.83 74 24.79C73.98 23.56 73.71 24.18 73.3 23.69C73.06 23.4 72.98 23.15 72.94 22.77C72.83 21.65 72.99 20.42 72.82 19.32C72.74 18.83 72.51 18.34 72.19 17.96C72.07 17.82 71.85 18.03 71.77 17.86C71.63 17.59 72.05 17.41 71.89 17.15C71.52 16.55 70.75 16.09 70.16 15.7C69.99 15.58 69.68 15.85 69.53 15.7C69.38 15.55 69.38 15.09 69.53 14.94C70.57 14.79 71.11 14.3 71.62 13.71C72.31 12.91 72.65 12.02 73 11.02C73.16 10.56 72.95 10.02 73 9.54C73.1 8.65 73.57 7.83 73.42 6.95C73.19 5.66 72.55 4.5 71.82 3.41C71.42 2.81 70.79 2.27 70.13 1.96C69.58 1.7 69.12 1.92 68.54 1.75C67.86 1.55 67.32 1.18 66.64 1.03C66.1 0.92 65.54 1.15 65.01 1.03C64.67 0.95 64.62 0.57 64.28 0.52C64.05 0.49 63.81 0.82 63.58 0.84C61.95 0.98 60.62 0.67 59 0.88C58.76 0.91 58.83 1.18 59.03 1.32C59.33 1.53 59.78 1.42 60.11 1.57C60.71 1.83 61.17 2.18 61.62 2.66C61.99 3.05 62.14 3.49 62.47 4.11C62.61 4.36 63 3.87 63.29 3.83C63.64 3.78 63.89 3.77 64.12 4.06C64.32 4.31 63.9 4.65 63.66 4.87C63.18 5.31 62.85 5.54 62.42 5.84C62.12 6.04 61.6 6.22 61.39 6.61C60.9 7.48 61.48 8.47 61.66 9.45C61.73 9.81 61.81 10.16 61.89 10.51C62.15 11.66 62.07 12.62 62.23 13.79C62.28 14.17 62.55 14.5 62.59 14.88C62.64 15.33 62.56 15.66 62.62 16.11C62.65 16.3 62.81 16.5 62.86 16.69C63.09 17.52 63.28 18.56 63.31 19.41C63.4 22.22 63.24 24.97 63.38 27.78C63.39 28.03 63.78 28.13 63.83 28.38C63.91 28.77 63.65 29.22 63.52 29.59C62.98 31.13 62.36 32.27 62.03 33.58Z" fill="#FFFFFF" fill-opacity="1.000000" fill-rule="evenodd"/>
</svg>
